<svg width="44" height="39" viewBox="0 0 44 39" fill="none" xmlns="http://www.w3.org/2000/svg">
<path d="M15.8889 0C13.6049 0 11.7104 1.56152 11.1681 3.67148C11.1069 3.67148 11.0611 3.65625 11 3.65625C8.30347 3.65625 6.11111 5.84238 6.11111 8.53125C6.11111 8.89688 6.15694 9.25488 6.24097 9.59766C4.01042 10.5117 2.44444 12.6902 2.44444 15.2344C2.44444 16.1941 2.68889 17.0854 3.07847 17.8928C1.24514 18.9439 0 20.8939 0 23.1562C0 25.6928 1.55833 27.8713 3.77361 28.7854C3.70486 29.1357 3.66667 29.4937 3.66667 29.8594C3.66667 32.891 6.12639 35.3438 9.16667 35.3438C9.47986 35.3438 9.78542 35.3057 10.0833 35.2523C10.8167 37.4232 12.8486 39 15.2778 39C18.3181 39 20.7778 36.5473 20.7778 33.5156V4.875C20.7778 2.18613 18.5854 0 15.8889 0ZM44 23.1562C44 20.8939 42.7549 18.9439 40.9215 17.8928C41.3188 17.0854 41.5556 16.1941 41.5556 15.2344C41.5556 12.6902 39.9896 10.5117 37.759 9.59766C37.8354 9.25488 37.8889 8.89688 37.8889 8.53125C37.8889 5.84238 35.6965 3.65625 33 3.65625C32.9389 3.65625 32.8854 3.67148 32.8319 3.67148C32.2896 1.56152 30.3951 0 28.1111 0C25.4146 0 23.2222 2.17852 23.2222 4.875V33.5156C23.2222 36.5473 25.6819 39 28.7222 39C31.1514 39 33.1833 37.4232 33.9167 35.2523C34.2146 35.3057 34.5201 35.3438 34.8333 35.3438C37.8736 35.3438 40.3333 32.891 40.3333 29.8594C40.3333 29.4937 40.2951 29.1357 40.2264 28.7854C42.4417 27.8713 44 25.6928 44 23.1562Z" fill="#FF7A41"/>
</svg>
