<svg width="28" height="28" viewBox="0 0 28 28" fill="none" xmlns="http://www.w3.org/2000/svg">
<path d="M14 0.4375C6.50962 0.4375 0.4375 6.50962 0.4375 14C0.4375 21.4904 6.50962 27.5625 14 27.5625C21.4904 27.5625 27.5625 21.4904 27.5625 14C27.5625 6.50962 21.4904 0.4375 14 0.4375ZM14 3.0625C20.0447 3.0625 24.9375 7.95435 24.9375 14C24.9375 20.0447 20.0456 24.9375 14 24.9375C7.95528 24.9375 3.0625 20.0456 3.0625 14C3.0625 7.95528 7.95435 3.0625 14 3.0625ZM21.6674 10.1865L20.435 8.94409C20.1797 8.68678 19.7642 8.68509 19.5069 8.94037L11.7767 16.6084L8.50686 13.312C8.25163 13.0547 7.83612 13.053 7.57881 13.3083L6.33637 14.5407C6.07906 14.7959 6.07737 15.2114 6.33265 15.4688L11.2972 20.4736C11.5525 20.7309 11.968 20.7326 12.2253 20.4773L21.6637 11.1146C21.921 10.8593 21.9226 10.4438 21.6674 10.1865Z" fill="#FF7A41"/>
</svg>
