<svg width="28" height="28" viewBox="0 0 28 28" fill="none" xmlns="http://www.w3.org/2000/svg">
<path d="M14 0.4375C6.50781 0.4375 0.4375 6.50781 0.4375 14C0.4375 21.4922 6.50781 27.5625 14 27.5625C21.4922 27.5625 27.5625 21.4922 27.5625 14C27.5625 6.50781 21.4922 0.4375 14 0.4375ZM14 24.9375C7.95703 24.9375 3.0625 20.043 3.0625 14C3.0625 7.95703 7.95703 3.0625 14 3.0625C20.043 3.0625 24.9375 7.95703 24.9375 14C24.9375 20.043 20.043 24.9375 14 24.9375ZM17.3797 19.2281L12.7367 15.8539C12.5672 15.7281 12.4688 15.5313 12.4688 15.3234V6.34375C12.4688 5.98281 12.7641 5.6875 13.125 5.6875H14.875C15.2359 5.6875 15.5312 5.98281 15.5312 6.34375V14.093L19.1844 16.7508C19.4797 16.9641 19.5398 17.3742 19.3266 17.6695L18.2984 19.0859C18.0852 19.3758 17.675 19.4414 17.3797 19.2281Z" fill="#DBD8D8"/>
</svg>
