<svg width="10" height="28" viewBox="0 0 10 28" fill="none" xmlns="http://www.w3.org/2000/svg">
<path d="M3.75 9.625C5.82292 9.625 7.5 11.3859 7.5 13.5625C7.5 15.7391 5.82292 17.5 3.75 17.5C1.67708 17.5 0 15.7391 0 13.5625C0 11.3859 1.67708 9.625 3.75 9.625ZM0 3.9375C0 6.11406 1.67708 7.875 3.75 7.875C5.82292 7.875 7.5 6.11406 7.5 3.9375C7.5 1.76094 5.82292 0 3.75 0C1.67708 0 0 1.76094 0 3.9375ZM0 23.1875C0 25.3641 1.67708 27.125 3.75 27.125C5.82292 27.125 7.5 25.3641 7.5 23.1875C7.5 21.0109 5.82292 19.25 3.75 19.25C1.67708 19.25 0 21.0109 0 23.1875Z" fill="black"/>
</svg>
