<svg width="25" height="26" viewBox="0 0 25 26" fill="none" xmlns="http://www.w3.org/2000/svg">
<path d="M16.9607 8.125C16.2298 3.59023 14.506 0.40625 12.5 0.40625C10.494 0.40625 8.77016 3.59023 8.03931 8.125H16.9607ZM7.66129 13C7.66129 14.1273 7.72177 15.209 7.82762 16.25H17.1673C17.2732 15.209 17.3337 14.1273 17.3337 13C17.3337 11.8727 17.2732 10.791 17.1673 9.75H7.82762C7.72177 10.791 7.66129 11.8727 7.66129 13ZM24.0272 8.125C22.5857 4.67695 19.6673 2.01094 16.0635 0.934375C17.2933 2.65078 18.1401 5.23555 18.5837 8.125H24.0272ZM8.93145 0.934375C5.33266 2.01094 2.40927 4.67695 0.972782 8.125H6.41633C6.85484 5.23555 7.70161 2.65078 8.93145 0.934375ZM24.5665 9.75H18.7853C18.8911 10.8164 18.9516 11.9082 18.9516 13C18.9516 14.0918 18.8911 15.1836 18.7853 16.25H24.5615C24.8387 15.209 24.995 14.1273 24.995 13C24.995 11.8727 24.8387 10.791 24.5665 9.75ZM6.04839 13C6.04839 11.9082 6.10887 10.8164 6.21472 9.75H0.433468C0.16129 10.791 0 11.8727 0 13C0 14.1273 0.16129 15.209 0.433468 16.25H6.20968C6.10887 15.1836 6.04839 14.0918 6.04839 13ZM8.03931 17.875C8.77016 22.4098 10.494 25.5938 12.5 25.5938C14.506 25.5938 16.2298 22.4098 16.9607 17.875H8.03931ZM16.0685 25.0656C19.6673 23.9891 22.5907 21.323 24.0323 17.875H18.5887C18.1452 20.7645 17.2984 23.3492 16.0685 25.0656ZM0.972782 17.875C2.41431 21.323 5.33266 23.9891 8.93649 25.0656C7.70665 23.3492 6.85988 20.7645 6.41633 17.875H0.972782Z" fill="black"/>
</svg>
