<svg width="28" height="28" viewBox="0 0 28 28" fill="none" xmlns="http://www.w3.org/2000/svg">
<path d="M11.6667 9.33334V16.3333L17.15 19.7167L18.0834 18.3167L13.4167 15.5167V9.33334H11.6667Z" fill="black"/>
<path d="M20.9067 14C20.965 14.385 21 14.77 21 15.1667C21 19.7167 17.3833 23.3334 12.8333 23.3334C8.28334 23.3334 4.66668 19.7167 4.66668 15.1667C4.66668 10.6167 8.28334 7.00002 12.8333 7.00002C13.65 7.00002 14.4317 7.11669 15.1667 7.33835V4.93502C14.42 4.76002 13.6383 4.66669 12.8333 4.66669C7.00001 4.66669 2.33334 9.33335 2.33334 15.1667C2.33334 21 7.00001 25.6667 12.8333 25.6667C18.6667 25.6667 23.3333 21 23.3333 15.1667C23.3333 14.77 23.31 14.385 23.2633 14H20.9067Z" fill="black"/>
<path d="M23.3333 5.83334V2.33334H21V5.83334H17.5V8.16668H21V11.6667H23.3333V8.16668H26.8333V5.83334H23.3333Z" fill="black"/>
</svg>
