<svg width="28" height="28" viewBox="0 0 28 28" fill="none" xmlns="http://www.w3.org/2000/svg">
<g clip-path="url(#clip0)">
<path d="M24.0633 0.355916L1.3133 13.4754C-0.567954 14.5637 -0.387485 17.3473 1.62502 18.1731L7.8758 20.7598V25.3754C7.8758 27.9129 11.1133 28.9575 12.6117 26.9395L15.007 23.7075L21.1266 26.234C21.4492 26.3653 21.7883 26.4309 22.1274 26.4309C22.5758 26.4309 23.0188 26.3161 23.418 26.0919C24.118 25.6981 24.5992 24.9981 24.725 24.2051L27.9735 3.03013C28.3071 0.837166 25.9555 -0.732366 24.0633 0.355916V0.355916ZM10.5008 25.3754V21.8426L12.5024 22.6684L10.5008 25.3754ZM22.1274 23.8059L13.7164 20.3333L21.3836 9.26998C21.9688 8.42232 20.8641 7.43795 20.0875 8.1106L8.52111 18.1895L2.6258 15.7504L25.3758 2.62545L22.1274 23.8059Z" fill="#FF7A41"/>
</g>
<defs>
<clipPath id="clip0">
<rect width="28" height="28" fill="white"/>
</clipPath>
</defs>
</svg>
